<svg xmlns="http://www.w3.org/2000/svg" width="48" height="48" viewBox="0 0 48 48" fill="none"><path fill-rule="evenodd" clip-rule="evenodd" d="M26.16 29.5681L30.568 25.1601C31.7855 23.9426 32.0873 22.0827 31.3173 20.5428L31.0676 20.0433C30.2976 18.5033 30.5994 16.6434 31.8168 15.426L37.2825 9.96037C37.673 9.56985 38.3061 9.56985 38.6967 9.96037C38.7727 10.0364 38.8359 10.1241 38.884 10.2203L41.0919 14.6362C42.781 18.0144 42.1189 22.0944 39.4482 24.7652L27.4506 36.7628C24.5435 39.6699 20.2435 40.685 16.3432 39.3849L11.5142 37.7753C10.9903 37.6006 10.7071 37.0343 10.8818 36.5103C10.9309 36.3631 11.0136 36.2292 11.1234 36.1195L16.4259 30.8169C17.6433 29.5995 19.5032 29.2977 21.0432 30.0676L21.5427 30.3174C23.0827 31.0874 24.9426 30.7856 26.16 29.5681Z" fill="#174035"></path><path opacity="0.3" fill-rule="evenodd" clip-rule="evenodd" d="M28.6261 8.02739L28.9962 4.04454C22.5213 3.44289 16.0821 5.7047 11.3934 10.3933C6.7113 15.0755 4.44907 21.5035 5.04226 27.9701L9.02553 27.6047C8.53976 22.3091 10.389 17.0546 14.2219 13.2218C18.0601 9.38357 23.3237 7.53468 28.6261 8.02739ZM27.9134 15.9959L28.2962 12.0142C24.1625 11.6169 20.0447 13.0558 17.0503 16.0502C14.0657 19.0348 12.6261 23.1356 13.0106 27.2568L16.9933 26.8852C16.7183 23.9371 17.745 21.0124 19.8787 18.8786C22.0195 16.7379 24.9563 15.7116 27.9134 15.9959Z" fill="black"></path></svg>